<svg id="share_1_" data-name="share (1)" xmlns="http://www.w3.org/2000/svg" width="14.267" height="15.564" viewBox="0 0 14.267 15.564">
  <path id="Path_5" data-name="Path 5" d="M311.764,4.864A2.432,2.432,0,1,1,314.2,2.432,2.435,2.435,0,0,1,311.764,4.864Zm0-3.891a1.459,1.459,0,1,0,1.459,1.459A1.461,1.461,0,0,0,311.764.973Zm0,0" transform="translate(-299.929)" fill="#fff"/>
  <path id="Path_6" data-name="Path 6" d="M311.764,356.864a2.432,2.432,0,1,1,2.432-2.432A2.435,2.435,0,0,1,311.764,356.864Zm0-3.891a1.459,1.459,0,1,0,1.459,1.459A1.461,1.461,0,0,0,311.764,352.973Zm0,0" transform="translate(-299.929 -341.3)" fill="#fff"/>
  <path id="Path_7" data-name="Path 7" d="M2.432,180.864a2.432,2.432,0,1,1,2.432-2.432A2.435,2.435,0,0,1,2.432,180.864Zm0-3.891a1.459,1.459,0,1,0,1.459,1.459A1.461,1.461,0,0,0,2.432,176.973Zm0,0" transform="translate(0 -170.65)" fill="#fff"/>
  <path id="Path_8" data-name="Path 8" d="M120.176,99.963a.486.486,0,0,1-.241-.909l6.017-3.431a.486.486,0,0,1,.481.845L120.416,99.9a.487.487,0,0,1-.24.064Zm0,0" transform="translate(-116.051 -92.654)" fill="#fff"/>
  <path id="Path_9" data-name="Path 9" d="M126.214,275.952a.482.482,0,0,1-.24-.064l-6.017-3.431a.486.486,0,0,1,.481-.845l6.017,3.431a.487.487,0,0,1-.241.909Zm0,0" transform="translate(-116.072 -263.294)" fill="#fff"/>
</svg>
